<svg xmlns="http://www.w3.org/2000/svg" width="30" height="30" viewBox="0 0 30 30"><defs><style>.a{fill:#ec2427;}</style></defs><g transform="translate(0 10.115)"><path class="a" d="M4.765,172.467v-4.106a1.278,1.278,0,0,0-1.208-1.336H1.208A1.274,1.274,0,0,0,0,168.323c.075.725.835,8.089.95,10.686a1.315,1.315,0,0,0,1.209,1.372h.7a3.039,3.039,0,0,1-.3-1.336v-3.784A2.743,2.743,0,0,1,4.765,172.467Z" transform="translate(0 -167.025)"/><path class="a" d="M83.654,270.672v-3.784a1.278,1.278,0,0,0-1.208-1.336h-19.8a1.278,1.278,0,0,0-1.208,1.336v3.784a1.278,1.278,0,0,0,1.208,1.336h19.8A1.278,1.278,0,0,0,83.654,270.672Z" transform="translate(-57.547 -258.652)"/><path class="a" d="M399.546,167.024a1.278,1.278,0,0,0-1.208,1.335v4.106a2.744,2.744,0,0,1,2.215,2.794v3.784a3.038,3.038,0,0,1-.3,1.336h.7a1.315,1.315,0,0,0,1.209-1.372c.115-2.6.875-9.961.95-10.686a1.274,1.274,0,0,0-1.208-1.3h-2.349Z" transform="translate(-373.103 -167.024)"/><path class="a" d="M33.185,377.019a2.31,2.31,0,0,1-.771.133h-.6l-.978,4.115a.752.752,0,0,0,.479.906.611.611,0,0,0,.171.025.687.687,0,0,0,.649-.554l1.1-4.611Z" transform="translate(-28.857 -362.312)"/><path class="a" d="M406.015,377.151h-.6a2.31,2.31,0,0,1-.772-.133l-.04.013,1.1,4.611a.687.687,0,0,0,.649.554.611.611,0,0,0,.171-.025.752.752,0,0,0,.479-.906Z" transform="translate(-378.967 -362.312)"/></g><path class="a" d="M77.1,23.1a1.426,1.426,0,0,0-1.069-.5H55.817a1.426,1.426,0,0,0-1.069.5,1.54,1.54,0,0,0-.377,1.068c.04,1.174.232,4.1.441,7.085a2.743,2.743,0,0,1,2.221,2.8v4.081H74.818V34.046a2.75,2.75,0,0,1,2.176-2.789c.218-2.995.445-5.913.486-7.091A1.541,1.541,0,0,0,77.1,23.1ZM63.006,33.81h-.4a.746.746,0,0,1,0-1.484h.4a.746.746,0,0,1,0,1.484Zm0-5.491h-.4a.746.746,0,0,1,0-1.484h.4a.746.746,0,0,1,0,1.484Zm6.241,5.491h-.4a.746.746,0,0,1,0-1.484h.4a.746.746,0,0,1,0,1.484Zm0-5.491h-.4a.746.746,0,0,1,0-1.484h.4a.746.746,0,0,1,0,1.484Z" transform="translate(-50.925 -22.595)"/></svg>