<svg xmlns="http://www.w3.org/2000/svg" width="20.214" height="30" viewBox="0 0 20.214 30"><defs><style>.a{fill:#ec2427;}</style></defs><path class="a" d="M98.859,6.9l1.387.781,3.472-2.457-1.531-3.23A4.4,4.4,0,0,0,98.5,0h-.576L96.9,2.329a3.556,3.556,0,0,0-3.229.56,3.556,3.556,0,0,0-3.217-.564L89.433,0h-.576a4.4,4.4,0,0,0-3.69,1.989L83.5,5.086l3.605,2.59,1.38-.777.84,5.886h8.695Z" transform="translate(-83.504 0)"/><path class="a" d="M153.825,248.3h-9.736a13.111,13.111,0,0,0-1.013,11.39l1.54,4.061H153.3l1.539-4.059a13.111,13.111,0,0,0-1.014-11.392Z" transform="translate(-138.784 -233.755)"/></svg>