<svg xmlns="http://www.w3.org/2000/svg" width="30" height="30" viewBox="0 0 30 30"><defs><style>.a{fill:#ec2427;}</style></defs><path class="a" d="M75.9,208H76.99v1.035H75.9Zm0,0" transform="translate(-70.722 -194.552)"/><path class="a" d="M1.978,161.509A3.758,3.758,0,0,0,5.77,164.69H24.232a3.758,3.758,0,0,0,3.792-3.181l1.964-15.763a1.575,1.575,0,0,0-1.425-1.733c-.068-.006-.136-.013-.2-.013H24.818v3.1h.546a.534.534,0,0,1,.546.517v2.069a.534.534,0,0,1-.546.517H23.181a.534.534,0,0,1-.546-.517v-2.069a.534.534,0,0,1,.546-.517h.546V144H6.267v3.1h.546a.534.534,0,0,1,.546.517v2.069a.534.534,0,0,1-.546.517H4.631a.534.534,0,0,1-.546-.517v-2.069a.534.534,0,0,1,.546-.517h.546V144H1.637A1.592,1.592,0,0,0,0,145.552a1.772,1.772,0,0,0,.014.187Zm0,0" transform="translate(0 -134.69)"/><path class="a" d="M347.9,208h1.091v1.035H347.9Zm0,0" transform="translate(-324.171 -194.552)"/><path class="a" d="M95.54,9.31H94.449V6.724a5.861,5.861,0,0,0-6-5.69H82.991a5.861,5.861,0,0,0-6,5.69V9.31H75.9V6.724A6.928,6.928,0,0,1,82.991,0h5.456A6.928,6.928,0,0,1,95.54,6.724Zm0,0" transform="translate(-70.722)"/></svg>