<svg xmlns="http://www.w3.org/2000/svg" width="30" height="30" viewBox="0 0 30 30"><defs><style>.a{fill:#ec2427;}</style></defs><circle class="a" cx="3.223" cy="3.223" r="3.223" transform="translate(11.777 15.352)"/><path class="a" d="M112.415,124.051v-1.57a11.412,11.412,0,0,0-10.078,1.766v9.061a2.64,2.64,0,0,1-2.344,2.62c0,.006,0,.011,0,.017v4.328a11.409,11.409,0,0,0,14.194,3.4l.153-2.217h0l.9-13.1A4.694,4.694,0,0,1,112.415,124.051Zm-3.281,14.355a4.98,4.98,0,1,1,4.98-4.98A4.986,4.986,0,0,1,109.134,138.406Z" transform="translate(-94.134 -114.852)"/><g transform="translate(20.039)"><path class="a" d="M379.905,237h-4.348l-.885,12.836a3.067,3.067,0,1,0,6.119,0Z" transform="translate(-372.751 -223.113)"/><path class="a" d="M351.082,0a.879.879,0,0,0-.879.879V7.734h-2.344V.879a.879.879,0,0,0-1.758,0V7.734h-2.344V.879a.879.879,0,1,0-1.758,0V9.2a2.93,2.93,0,0,0,2.928,2.93h4.106a2.93,2.93,0,0,0,2.928-2.93V.879A.879.879,0,0,0,351.082,0Z" transform="translate(-342)"/></g><path class="a" d="M6.445,18.457V8.463a9.353,9.353,0,0,0-1.4-4.92A9.352,9.352,0,0,0,1.272.093.88.88,0,0,0,.247.267.9.9,0,0,0,0,.9V19.336H5.566A.879.879,0,0,0,6.445,18.457Z" transform="translate(0 0)"/><path class="a" d="M0,366.855a2.051,2.051,0,0,0,4.1,0V360H0Z" transform="translate(0 -338.906)"/></svg>