<svg xmlns="http://www.w3.org/2000/svg" width="30" height="30" viewBox="0 0 30 30"><defs><style>.a{fill:#ec2427;}</style></defs><g transform="translate(0 0)"><path class="a" d="M31.311,12.027a1.253,1.253,0,0,1,.3,1.318c-.092.264-.557,1.577-1.34,3.565a1.613,1.613,0,0,1,.553.208l1.08.647a1.607,1.607,0,0,1,.649,2.014l-1,2.332c.045.012.091.028.136.04L37.7,16.141a2.143,2.143,0,0,0,0-3.031l-.761-.761-4.195,4.2a.536.536,0,0,1-.758-.758l3.817-3.815L33.719,9.888l-1.857.268A1.615,1.615,0,0,1,30.5,9.7l-.41-.41a.536.536,0,0,0-.728-.027c-1.041.911-2.248,2.8-4.519,4.32a9.211,9.211,0,0,0,4.878-1.706,1.255,1.255,0,0,1,1.587.151Zm2.3,5.174,2.957-2.956a.536.536,0,1,1,.758.758l-2.957,2.956a.536.536,0,1,1-.758-.758Z" transform="translate(-11.545 -4.245)"/><path class="a" d="M47.3,39.324,45.8,38.2a1.616,1.616,0,0,1-.643-1.286v-.579a.536.536,0,0,0-.5-.536A14.289,14.289,0,0,0,43,35.841a17.087,17.087,0,0,1-4.589-.183A9.2,9.2,0,0,0,43.068,37.9a1.263,1.263,0,0,1,.3,2.377c-.734.353-2.372,1.119-4.5,2H47.3Z" transform="translate(-17.84 -16.557)"/><path class="a" d="M29.832,4.754c.183-.193.363-.375.544-.532a1.608,1.608,0,0,1,2.193.075l.41.41a.536.536,0,0,0,.454.152l1.062-.152L29.946.16a.552.552,0,0,0-.758,0l-.482.482a.544.544,0,0,0-.073.657,8.433,8.433,0,0,1,1.2,3.454Z" transform="translate(-13.265 -0.01)"/><path class="a" d="M18.575,32.7l-1.126-.675a21.738,21.738,0,0,1-3.392,1.742h.725a6.688,6.688,0,0,1,1.072.115,8.3,8.3,0,0,1,6.017,4.627c1.311-.358,2.137-.683,2.7-.882,3.336-1.25,6.038-2.511,7.045-2.995a.174.174,0,0,0,.1-.161.191.191,0,0,0-.157-.2c-1.407-.271-4.846-1.2-6.218-3.939a.536.536,0,0,1-.013-.451l1.238-2.893a.536.536,0,0,0-.219-.67l-1.08-.647a.527.527,0,0,0-.682.107c-.2.232-.44.505-.713.8l.617.37a.536.536,0,0,1-.552.918l-.821-.492q-.386.4-.831.824l.6.357a.536.536,0,0,1-.552.918l-.86-.516c-.287.257-.59.518-.9.78l.709.425a.536.536,0,0,1-.552.918l-1.048-.624c-.4.306-.8.61-1.233.906l.687.412a.536.536,0,0,1-.552.918Z" transform="translate(-6.539 -11.886)"/><path class="a" d="M49.548,30.712a1.608,1.608,0,0,1,1.5,1.6v.579a.539.539,0,0,0,.214.429l.858.643v-6.43A.536.536,0,0,0,51.581,27H50.9a.543.543,0,0,0-.519.413,8.447,8.447,0,0,1-1.594,3.29c.267-.006.52-.006.761.009Z" transform="translate(-22.653 -12.538)"/><path class="a" d="M10.2,47.214a17.024,17.024,0,0,0,4.089-.429,7.22,7.22,0,0,0-5.131-3.841,5.738,5.738,0,0,0-.883-.1c-6.539,0-3.949-.02-5.546.079-.127,0-2.364.032-2.674,1.706-.009.048-.017.1-.023.146.962.57,4.29,2.437,6.416,2.437Z" transform="translate(-0.031 -19.893)"/><path class="a" d="M18.38,49.452c-.468.171-.907.335-1.546.536a19.665,19.665,0,0,1-6.589,1.072H6.493c-2.067,0-4.928-1.439-6.362-2.24a4.275,4.275,0,0,0,4.218,3.848H27.933a2.144,2.144,0,0,0,2.144-2.143V49.452ZM28.469,51.6h-5.36a.536.536,0,1,1,0-1.072h5.36a.536.536,0,1,1,0,1.072Z" transform="translate(-0.077 -22.667)"/><path class="a" d="M14.252,24.906a.536.536,0,1,1,.552-.918l.979.589c.435-.289.858-.585,1.26-.888L16.4,23.3a.536.536,0,1,1,.552-.918l1,.6q.477-.389.911-.774L18,21.694a.536.536,0,1,1,.552-.918l1.132.679q.449-.424.839-.819l-.915-.549a.536.536,0,1,1,.552-.918l1.126.674c.865-.931.824-.961,1.053-1.146.946-2.371,1.508-3.957,1.613-4.256a.189.189,0,0,0-.281-.22c-1.194.807-4.281,2.578-7.192,1.613a.536.536,0,0,1-.329-.309L14.976,12.6a.536.536,0,0,0-.63-.321l-1.218.3a.536.536,0,0,0-.406.562c.027.315.048.68.065,1.072l.7-.175a.536.536,0,1,1,.259,1.04l-.933.233q.006.565-.008,1.17l.681-.17a.536.536,0,1,1,.259,1.04l-.982.245c-.023.41-.054.808-.086,1.19l.808-.2a.536.536,0,0,1,.259,1.039l-1.193.3c-.065.517-.144,1.018-.233,1.511l.787-.2a.536.536,0,0,1,.259,1.039l-1.286.321a20.5,20.5,0,0,1-1.56,4.514,18.813,18.813,0,0,0,4.245-1.9Z" transform="translate(-4.896 -5.699)"/></g></svg>